STARTFONT 2.1
FONT -JDECW-Gothic-Medium-R-Normal--20-140-100-100-M-100-ISO8859-1
SIZE 14 100 100
FONTBOUNDINGBOX 11 22 0 -4

STARTPROPERTIES 26
FONTNAME_REGISTRY ""
FAMILY_NAME "Gothic"
FOUNDRY "JDECW"
WEIGHT_NAME "Medium"
SLANT "R"
SETWIDTH_NAME "Normal"
ADD_STYLE_NAME ""
PIXEL_SIZE 20
POINT_SIZE 140
RESOLUTION_X 100
RESOLUTION_Y 100
SPACING "M"
AVERAGE_WIDTH 100
CHARSET_REGISTRY "ISO8859"
CHARSET_ENCODING "1"
DEVICE_FONT_NAME "Gothic-ISO8859-1"
CHARSET_COLLECTIONS "ISO8859 1"
FULL_NAME "Gothic-ISO8859-1"
COPYRIGHT "Copyright (c) 1990 1991 TYPEBANK, Digital Equipment Corporation Japan"
CAP_HEIGHT 15
X_HEIGHT 10
WEIGHT 10
QUAD_WIDTH 11
DEFAULT_CHAR 32
FONT_DESCENT 4
FONT_ASCENT 18
ENDPROPERTIES

CHARS 223

STARTCHAR C20
ENCODING 32
SWIDTH 1000 0
DWIDTH 11 0
BBX 11 22 0 -4
BITMAP
0000
0000
0000
0000
0000
0000
0000
0000
0000
0000
0000
0000
0000
0000
0000
0000
0000
0000
0000
0000
0000
0000
ENDCHAR

STARTCHAR C21
ENCODING 33
SWIDTH 1000 0
DWIDTH 11 0
BBX 11 22 0 -4
BITMAP
0000
0000
1C00
1C00
1C00
1C00
1C00
1C00
1C00
1C00
0800
0800
0800
0800
0800
0000
0000
0800
0800
0800
0000
0000
ENDCHAR

STARTCHAR C22
ENCODING 34
SWIDTH 1000 0
DWIDTH 11 0
BBX 11 22 0 -4
BITMAP
0000
EE00
EE00
2200
6600
CC00
0000
0000
0000
0000
0000
0000
0000
0000
0000
0000
0000
0000
0000
0000
0000
0000
ENDCHAR

STARTCHAR C23
ENCODING 35
SWIDTH 1000 0
DWIDTH 11 0
BBX 11 22 0 -4
BITMAP
0000
0000
0900
0900
0900
0900
7FC0
1200
1200
1200
1200
1200
1200
1200
FF80
2400
2400
2400
2400
2400
0000
0000
ENDCHAR

STARTCHAR C24
ENCODING 36
SWIDTH 1000 0
DWIDTH 11 0
BBX 11 22 0 -4
BITMAP
0000
0800
0800
3E00
4900
8880
8880
8800
4800
2800
1C00
0A00
0900
0880
8880
8880
4900
3E00
0800
0800
0000
0000
ENDCHAR

STARTCHAR C25
ENCODING 37
SWIDTH 1000 0
DWIDTH 11 0
BBX 11 22 0 -4
BITMAP
0000
0000
0080
6080
9100
9100
9200
9200
9400
6400
0800
0800
1300
1480
2480
2480
4480
4480
8300
8000
0000
0000
ENDCHAR

STARTCHAR C26
ENCODING 38
SWIDTH 1000 0
DWIDTH 11 0
BBX 11 22 0 -4
BITMAP
0000
0000
1800
2400
4200
4200
4200
2400
2800
1000
2800
4900
8500
8500
8200
8200
4500
3880
0000
0000
0000
0000
ENDCHAR

STARTCHAR C27
ENCODING 39
SWIDTH 1000 0
DWIDTH 11 0
BBX 11 22 0 -4
BITMAP
0000
E000
E000
2000
6000
C000
0000
0000
0000
0000
0000
0000
0000
0000
0000
0000
0000
0000
0000
0000
0000
0000
ENDCHAR

STARTCHAR C28
ENCODING 40
SWIDTH 1000 0
DWIDTH 11 0
BBX 11 22 0 -4
BITMAP
0000
0080
0100
0200
0200
0400
0400
0400
0800
0800
0800
0800
0800
0800
0400
0400
0400
0200
0200
0100
0080
0000
ENDCHAR

STARTCHAR C29
ENCODING 41
SWIDTH 1000 0
DWIDTH 11 0
BBX 11 22 0 -4
BITMAP
0000
4000
2000
1000
1000
0800
0800
0800
0400
0400
0400
0400
0400
0400
0800
0800
0800
1000
1000
2000
4000
0000
ENDCHAR

STARTCHAR C2a
ENCODING 42
SWIDTH 1000 0
DWIDTH 11 0
BBX 11 22 0 -4
BITMAP
0000
0000
0000
0000
0800
1C00
4900
C980
6B00
1C00
0800
1C00
6B00
C980
4900
1C00
0800
0000
0000
0000
0000
0000
ENDCHAR

STARTCHAR C2b
ENCODING 43
SWIDTH 1000 0
DWIDTH 11 0
BBX 11 22 0 -4
BITMAP
0000
0000
0000
0000
0800
0800
0800
0800
0800
0800
FF80
0800
0800
0800
0800
0800
0800
0000
0000
0000
0000
0000
ENDCHAR

STARTCHAR C2c
ENCODING 44
SWIDTH 1000 0
DWIDTH 11 0
BBX 11 22 0 -4
BITMAP
0000
0000
0000
0000
0000
0000
0000
0000
0000
0000
0000
0000
0000
0000
0000
0000
E000
E000
6000
C000
8000
0000
ENDCHAR

STARTCHAR C2d
ENCODING 45
SWIDTH 1000 0
DWIDTH 11 0
BBX 11 22 0 -4
BITMAP
0000
0000
0000
0000
0000
0000
0000
0000
0000
0000
FFC0
0000
0000
0000
0000
0000
0000
0000
0000
0000
0000
0000
ENDCHAR

STARTCHAR C2e
ENCODING 46
SWIDTH 1000 0
DWIDTH 11 0
BBX 11 22 0 -4
BITMAP
0000
0000
0000
0000
0000
0000
0000
0000
0000
0000
0000
0000
0000
0000
0000
0000
0000
E000
E000
E000
0000
0000
ENDCHAR

STARTCHAR C2f
ENCODING 47
SWIDTH 1000 0
DWIDTH 11 0
BBX 11 22 0 -4
BITMAP
0000
0040
0040
0080
0080
0100
0100
0200
0200
0400
0400
0800
0800
1000
1000
2000
2000
4000
4000
8000
8000
0000
ENDCHAR

STARTCHAR C30
ENCODING 48
SWIDTH 1000 0
DWIDTH 11 0
BBX 11 22 0 -4
BITMAP
0000
0000
0000
1C00
2200
2200
4100
4100
4100
4100
4100
4100
4100
4100
4100
2200
2200
1C00
0000
0000
0000
0000
ENDCHAR

STARTCHAR C31
ENCODING 49
SWIDTH 1000 0
DWIDTH 11 0
BBX 11 22 0 -4
BITMAP
0000
0000
0000
0C00
1400
2400
0400
0400
0400
0400
0400
0400
0400
0400
0400
0400
0400
0400
0000
0000
0000
0000
ENDCHAR

STARTCHAR C32
ENCODING 50
SWIDTH 1000 0
DWIDTH 11 0
BBX 11 22 0 -4
BITMAP
0000
0000
0000
1C00
2200
4100
4100
0100
0200
0200
0400
0800
1000
2000
2000
4000
4000
7F00
0000
0000
0000
0000
ENDCHAR

STARTCHAR C33
ENCODING 51
SWIDTH 1000 0
DWIDTH 11 0
BBX 11 22 0 -4
BITMAP
0000
0000
0000
1E00
2100
4080
4080
0080
0080
0100
1E00
0100
0080
0080
4080
4080
2100
1E00
0000
0000
0000
0000
ENDCHAR

STARTCHAR C34
ENCODING 52
SWIDTH 1000 0
DWIDTH 11 0
BBX 11 22 0 -4
BITMAP
0000
0000
0000
0200
0600
0600
0A00
0A00
1200
1200
2200
2200
4200
7F80
0200
0200
0200
0200
0000
0000
0000
0000
ENDCHAR

STARTCHAR C35
ENCODING 53
SWIDTH 1000 0
DWIDTH 11 0
BBX 11 22 0 -4
BITMAP
0000
0000
0000
7F00
4000
4000
4000
4000
5E00
6100
4080
0080
0080
0080
4080
4080
2100
1E00
0000
0000
0000
0000
ENDCHAR

STARTCHAR C36
ENCODING 54
SWIDTH 1000 0
DWIDTH 11 0
BBX 11 22 0 -4
BITMAP
0000
0000
0000
1E00
2100
4080
4080
4000
4000
5E00
6100
4080
4080
4080
4080
4080
2100
1E00
0000
0000
0000
0000
ENDCHAR

STARTCHAR C37
ENCODING 55
SWIDTH 1000 0
DWIDTH 11 0
BBX 11 22 0 -4
BITMAP
0000
0000
0000
7F80
0080
0080
0100
0100
0200
0200
0200
0400
0400
0400
0800
0800
0800
0800
0000
0000
0000
0000
ENDCHAR

STARTCHAR C38
ENCODING 56
SWIDTH 1000 0
DWIDTH 11 0
BBX 11 22 0 -4
BITMAP
0000
0000
0000
1E00
2100
4080
4080
4080
4080
2100
1E00
2100
4080
4080
4080
4080
2100
1E00
0000
0000
0000
0000
ENDCHAR

STARTCHAR C39
ENCODING 57
SWIDTH 1000 0
DWIDTH 11 0
BBX 11 22 0 -4
BITMAP
0000
0000
0000
1E00
2100
4080
4080
4080
4080
4080
2180
1E80
0080
0080
4080
4080
2100
1E00
0000
0000
0000
0000
ENDCHAR

STARTCHAR C3a
ENCODING 58
SWIDTH 1000 0
DWIDTH 11 0
BBX 11 22 0 -4
BITMAP
0000
0000
0000
0000
0000
0000
0000
0000
1C00
1C00
1C00
0000
0000
0000
0000
1C00
1C00
1C00
0000
0000
0000
0000
ENDCHAR

STARTCHAR C3b
ENCODING 59
SWIDTH 1000 0
DWIDTH 11 0
BBX 11 22 0 -4
BITMAP
0000
0000
0000
0000
0000
0000
0000
0000
1C00
1C00
1C00
0000
0000
0000
0000
1C00
1C00
1C00
0400
0C00
1800
0000
ENDCHAR

STARTCHAR C3c
ENCODING 60
SWIDTH 1000 0
DWIDTH 11 0
BBX 11 22 0 -4
BITMAP
0000
0040
0080
0100
0200
0400
0800
1000
2000
4000
8000
8000
4000
2000
1000
0800
0400
0200
0100
0080
0040
0000
ENDCHAR

STARTCHAR C3d
ENCODING 61
SWIDTH 1000 0
DWIDTH 11 0
BBX 11 22 0 -4
BITMAP
0000
0000
0000
0000
0000
0000
0000
0000
7F80
0000
0000
0000
7F80
0000
0000
0000
0000
0000
0000
0000
0000
0000
ENDCHAR

STARTCHAR C3e
ENCODING 62
SWIDTH 1000 0
DWIDTH 11 0
BBX 11 22 0 -4
BITMAP
0000
8000
4000
2000
1000
0800
0400
0200
0100
0080
0040
0040
0080
0100
0200
0400
0800
1000
2000
4000
8000
0000
ENDCHAR

STARTCHAR C3f
ENCODING 63
SWIDTH 1000 0
DWIDTH 11 0
BBX 11 22 0 -4
BITMAP
0000
0000
1E00
2100
4080
4080
4080
0100
0100
0200
0400
0400
0800
0800
0800
0000
0000
0800
0800
0800
0000
0000
ENDCHAR

STARTCHAR C40
ENCODING 64
SWIDTH 1000 0
DWIDTH 11 0
BBX 11 22 0 -4
BITMAP
0000
0000
0000
1E00
2100
4080
4C80
9240
9240
A240
A240
A240
A480
A480
5B00
4000
2080
1F00
0000
0000
0000
0000
ENDCHAR

STARTCHAR C41
ENCODING 65
SWIDTH 1000 0
DWIDTH 11 0
BBX 11 22 0 -4
BITMAP
0000
0000
0000
0800
0800
1400
1400
1400
2200
2200
2200
4100
7F00
4100
4100
8080
8080
8080
0000
0000
0000
0000
ENDCHAR

STARTCHAR C42
ENCODING 66
SWIDTH 1000 0
DWIDTH 11 0
BBX 11 22 0 -4
BITMAP
0000
0000
0000
7C00
4200
4100
4100
4100
4200
7C00
4200
4100
4080
4080
4080
4080
4100
7E00
0000
0000
0000
0000
ENDCHAR

STARTCHAR C43
ENCODING 67
SWIDTH 1000 0
DWIDTH 11 0
BBX 11 22 0 -4
BITMAP
0000
0000
0000
1E00
2100
4080
4080
8000
8000
8000
8000
8000
8000
8000
4080
4080
2100
1E00
0000
0000
0000
0000
ENDCHAR

STARTCHAR C44
ENCODING 68
SWIDTH 1000 0
DWIDTH 11 0
BBX 11 22 0 -4
BITMAP
0000
0000
0000
7800
4600
4100
4100
4080
4080
4080
4080
4080
4080
4080
4100
4100
4600
7800
0000
0000
0000
0000
ENDCHAR

STARTCHAR C45
ENCODING 69
SWIDTH 1000 0
DWIDTH 11 0
BBX 11 22 0 -4
BITMAP
0000
0000
0000
7F80
4000
4000
4000
4000
4000
4000
7F00
4000
4000
4000
4000
4000
4000
7F80
0000
0000
0000
0000
ENDCHAR

STARTCHAR C46
ENCODING 70
SWIDTH 1000 0
DWIDTH 11 0
BBX 11 22 0 -4
BITMAP
0000
0000
0000
7F80
4000
4000
4000
4000
4000
4000
7F00
4000
4000
4000
4000
4000
4000
4000
0000
0000
0000
0000
ENDCHAR

STARTCHAR C47
ENCODING 71
SWIDTH 1000 0
DWIDTH 11 0
BBX 11 22 0 -4
BITMAP
0000
0000
0000
1E00
2100
4080
4080
8000
8000
8000
8000
8780
8080
8080
4080
4080
2180
1E80
0000
0000
0000
0000
ENDCHAR

STARTCHAR C48
ENCODING 72
SWIDTH 1000 0
DWIDTH 11 0
BBX 11 22 0 -4
BITMAP
0000
0000
0000
4080
4080
4080
4080
4080
4080
4080
7F80
4080
4080
4080
4080
4080
4080
4080
0000
0000
0000
0000
ENDCHAR

STARTCHAR C49
ENCODING 73
SWIDTH 1000 0
DWIDTH 11 0
BBX 11 22 0 -4
BITMAP
0000
0000
0000
0800
0800
0800
0800
0800
0800
0800
0800
0800
0800
0800
0800
0800
0800
0800
0000
0000
0000
0000
ENDCHAR

STARTCHAR C4a
ENCODING 74
SWIDTH 1000 0
DWIDTH 11 0
BBX 11 22 0 -4
BITMAP
0000
0000
0000
0100
0100
0100
0100
0100
0100
0100
0100
0100
0100
0100
8100
8100
4200
3C00
0000
0000
0000
0000
ENDCHAR

STARTCHAR C4b
ENCODING 75
SWIDTH 1000 0
DWIDTH 11 0
BBX 11 22 0 -4
BITMAP
0000
0000
0000
4100
4200
4200
4400
4800
4800
5000
6800
4800
4400
4200
4200
4100
4080
4080
0000
0000
0000
0000
ENDCHAR

STARTCHAR C4c
ENCODING 76
SWIDTH 1000 0
DWIDTH 11 0
BBX 11 22 0 -4
BITMAP
0000
0000
0000
4000
4000
4000
4000
4000
4000
4000
4000
4000
4000
4000
4000
4000
4000
7F80
0000
0000
0000
0000
ENDCHAR

STARTCHAR C4d
ENCODING 77
SWIDTH 1000 0
DWIDTH 11 0
BBX 11 22 0 -4
BITMAP
0000
0000
0000
8080
8080
C180
C180
A280
A280
A280
9480
9480
9480
8880
8880
8880
8080
8080
0000
0000
0000
0000
ENDCHAR

STARTCHAR C4e
ENCODING 78
SWIDTH 1000 0
DWIDTH 11 0
BBX 11 22 0 -4
BITMAP
0000
0000
0000
8100
C100
C100
A100
A100
9100
9100
8900
8900
8900
8500
8500
8300
8300
8100
0000
0000
0000
0000
ENDCHAR

STARTCHAR C4f
ENCODING 79
SWIDTH 1000 0
DWIDTH 11 0
BBX 11 22 0 -4
BITMAP
0000
0000
0000
1C00
2200
4100
4100
8080
8080
8080
8080
8080
8080
8080
4100
4100
2200
1C00
0000
0000
0000
0000
ENDCHAR

STARTCHAR C50
ENCODING 80
SWIDTH 1000 0
DWIDTH 11 0
BBX 11 22 0 -4
BITMAP
0000
0000
0000
7E00
4100
4080
4080
4080
4080
4100
7E00
4000
4000
4000
4000
4000
4000
4000
0000
0000
0000
0000
ENDCHAR

STARTCHAR C51
ENCODING 81
SWIDTH 1000 0
DWIDTH 11 0
BBX 11 22 0 -4
BITMAP
0000
0000
0000
1C00
2200
4100
4100
8080
8080
8080
8080
8080
8080
8080
4900
4500
2200
1D00
0080
0000
0000
0000
ENDCHAR

STARTCHAR C52
ENCODING 82
SWIDTH 1000 0
DWIDTH 11 0
BBX 11 22 0 -4
BITMAP
0000
0000
0000
7E00
4100
4080
4080
4080
4080
4100
7E00
4400
4200
4200
4100
4100
4080
4080
0000
0000
0000
0000
ENDCHAR

STARTCHAR C53
ENCODING 83
SWIDTH 1000 0
DWIDTH 11 0
BBX 11 22 0 -4
BITMAP
0000
0000
0000
1E00
2100
4080
4080
4000
2000
1800
0600
0100
0080
0080
4080
4080
2100
1E00
0000
0000
0000
0000
ENDCHAR

STARTCHAR C54
ENCODING 84
SWIDTH 1000 0
DWIDTH 11 0
BBX 11 22 0 -4
BITMAP
0000
0000
0000
FF80
0800
0800
0800
0800
0800
0800
0800
0800
0800
0800
0800
0800
0800
0800
0000
0000
0000
0000
ENDCHAR

STARTCHAR C55
ENCODING 85
SWIDTH 1000 0
DWIDTH 11 0
BBX 11 22 0 -4
BITMAP
0000
0000
0000
4080
4080
4080
4080
4080
4080
4080
4080
4080
4080
4080
4080
2100
2100
1E00
0000
0000
0000
0000
ENDCHAR

STARTCHAR C56
ENCODING 86
SWIDTH 1000 0
DWIDTH 11 0
BBX 11 22 0 -4
BITMAP
0000
0000
0000
8080
8080
8080
4100
4100
4100
2200
2200
2200
1400
1400
1400
0800
0800
0800
0000
0000
0000
0000
ENDCHAR

STARTCHAR C57
ENCODING 87
SWIDTH 1000 0
DWIDTH 11 0
BBX 11 22 0 -4
BITMAP
0000
0000
0000
8880
8880
8880
8880
8880
9480
5500
5500
5500
5500
5500
2200
2200
2200
2200
0000
0000
0000
0000
ENDCHAR

STARTCHAR C58
ENCODING 88
SWIDTH 1000 0
DWIDTH 11 0
BBX 11 22 0 -4
BITMAP
0000
0000
0000
4100
4100
2200
2200
2200
1400
1400
0800
1400
1400
2200
4100
4100
8080
8080
0000
0000
0000
0000
ENDCHAR

STARTCHAR C59
ENCODING 89
SWIDTH 1000 0
DWIDTH 11 0
BBX 11 22 0 -4
BITMAP
0000
0000
0000
8080
8080
4100
4100
2200
2200
1400
1400
0800
0800
0800
0800
0800
0800
0800
0000
0000
0000
0000
ENDCHAR

STARTCHAR C5a
ENCODING 90
SWIDTH 1000 0
DWIDTH 11 0
BBX 11 22 0 -4
BITMAP
0000
0000
0000
FF00
0200
0200
0400
0400
0800
0800
1000
1000
2000
2000
4000
4000
8000
FF80
0000
0000
0000
0000
ENDCHAR

STARTCHAR C5b
ENCODING 91
SWIDTH 1000 0
DWIDTH 11 0
BBX 11 22 0 -4
BITMAP
0000
0380
0200
0200
0200
0200
0200
0200
0200
0200
0200
0200
0200
0200
0200
0200
0200
0200
0200
0200
0380
0000
ENDCHAR

STARTCHAR C5c
ENCODING 92
SWIDTH 1000 0
DWIDTH 11 0
BBX 11 22 0 -4
BITMAP
0000
8000
8000
4000
4000
2000
2000
1000
1000
0800
0800
0400
0400
0200
0200
0100
0100
0080
0080
0040
0040
0000
ENDCHAR

STARTCHAR C5d
ENCODING 93
SWIDTH 1000 0
DWIDTH 11 0
BBX 11 22 0 -4
BITMAP
0000
7000
1000
1000
1000
1000
1000
1000
1000
1000
1000
1000
1000
1000
1000
1000
1000
1000
1000
1000
7000
0000
ENDCHAR

STARTCHAR C5e
ENCODING 94
SWIDTH 1000 0
DWIDTH 11 0
BBX 11 22 0 -4
BITMAP
0000
0C00
3300
0000
0000
0000
0000
0000
0000
0000
0000
0000
0000
0000
0000
0000
0000
0000
0000
0000
0000
0000
ENDCHAR

STARTCHAR C5f
ENCODING 95
SWIDTH 1000 0
DWIDTH 11 0
BBX 11 22 0 -4
BITMAP
0000
0000
0000
0000
0000
0000
0000
0000
0000
0000
0000
0000
0000
0000
0000
0000
0000
0000
0000
0000
FFC0
0000
ENDCHAR

STARTCHAR C60
ENCODING 96
SWIDTH 1000 0
DWIDTH 11 0
BBX 11 22 0 -4
BITMAP
0000
E000
E000
8000
C000
6000
0000
0000
0000
0000
0000
0000
0000
0000
0000
0000
0000
0000
0000
0000
0000
0000
ENDCHAR

STARTCHAR C61
ENCODING 97
SWIDTH 1000 0
DWIDTH 11 0
BBX 11 22 0 -4
BITMAP
0000
0000
0000
0000
0000
0000
0000
0000
1E00
2100
2100
0100
0F00
3100
4100
4100
4300
3D80
0000
0000
0000
0000
ENDCHAR

STARTCHAR C62
ENCODING 98
SWIDTH 1000 0
DWIDTH 11 0
BBX 11 22 0 -4
BITMAP
0000
0000
0000
2000
2000
2000
2000
2000
2E00
3100
2080
2080
2080
2080
2080
2080
3100
2E00
0000
0000
0000
0000
ENDCHAR

STARTCHAR C63
ENCODING 99
SWIDTH 1000 0
DWIDTH 11 0
BBX 11 22 0 -4
BITMAP
0000
0000
0000
0000
0000
0000
0000
0000
1E00
2100
2080
4000
4000
4000
4080
2080
2100
1E00
0000
0000
0000
0000
ENDCHAR

STARTCHAR C64
ENCODING 100
SWIDTH 1000 0
DWIDTH 11 0
BBX 11 22 0 -4
BITMAP
0000
0000
0000
0100
0100
0100
0100
0100
1D00
2300
4100
4100
4100
4100
4100
4100
2300
1D00
0000
0000
0000
0000
ENDCHAR

STARTCHAR C65
ENCODING 101
SWIDTH 1000 0
DWIDTH 11 0
BBX 11 22 0 -4
BITMAP
0000
0000
0000
0000
0000
0000
0000
0000
1E00
2100
2100
4080
7F80
4000
4000
2080
2100
1E00
0000
0000
0000
0000
ENDCHAR

STARTCHAR C66
ENCODING 102
SWIDTH 1000 0
DWIDTH 11 0
BBX 11 22 0 -4
BITMAP
0000
0000
0000
0700
0800
0800
0800
0800
7F00
0800
0800
0800
0800
0800
0800
0800
0800
0800
0000
0000
0000
0000
ENDCHAR

STARTCHAR C67
ENCODING 103
SWIDTH 1000 0
DWIDTH 11 0
BBX 11 22 0 -4
BITMAP
0000
0000
0000
0000
0000
0000
0000
0000
1E80
2180
4080
4080
4080
4080
2180
1E80
0080
0080
4080
2100
1E00
0000
ENDCHAR

STARTCHAR C68
ENCODING 104
SWIDTH 1000 0
DWIDTH 11 0
BBX 11 22 0 -4
BITMAP
0000
0000
0000
4000
4000
4000
4000
4000
5E00
6100
4080
4080
4080
4080
4080
4080
4080
4080
0000
0000
0000
0000
ENDCHAR

STARTCHAR C69
ENCODING 105
SWIDTH 1000 0
DWIDTH 11 0
BBX 11 22 0 -4
BITMAP
0000
0000
0000
0000
0800
0800
0000
0000
0800
0800
0800
0800
0800
0800
0800
0800
0800
0800
0000
0000
0000
0000
ENDCHAR

STARTCHAR C6a
ENCODING 106
SWIDTH 1000 0
DWIDTH 11 0
BBX 11 22 0 -4
BITMAP
0000
0000
0000
0000
0200
0200
0000
0000
0200
0200
0200
0200
0200
0200
0200
0200
0200
0200
0200
0400
3800
0000
ENDCHAR

STARTCHAR C6b
ENCODING 107
SWIDTH 1000 0
DWIDTH 11 0
BBX 11 22 0 -4
BITMAP
0000
0000
0000
4000
4000
4000
4000
4000
4100
4200
4400
4800
5400
6400
4200
4100
4100
4080
0000
0000
0000
0000
ENDCHAR

STARTCHAR C6c
ENCODING 108
SWIDTH 1000 0
DWIDTH 11 0
BBX 11 22 0 -4
BITMAP
0000
0000
0000
0800
0800
0800
0800
0800
0800
0800
0800
0800
0800
0800
0800
0800
0800
0800
0000
0000
0000
0000
ENDCHAR

STARTCHAR C6d
ENCODING 109
SWIDTH 1000 0
DWIDTH 11 0
BBX 11 22 0 -4
BITMAP
0000
0000
0000
0000
0000
0000
0000
0000
B300
CC80
8880
8880
8880
8880
8880
8880
8880
8880
0000
0000
0000
0000
ENDCHAR

STARTCHAR C6e
ENCODING 110
SWIDTH 1000 0
DWIDTH 11 0
BBX 11 22 0 -4
BITMAP
0000
0000
0000
0000
0000
0000
0000
0000
5E00
6100
4100
4100
4100
4100
4100
4100
4100
4100
0000
0000
0000
0000
ENDCHAR

STARTCHAR C6f
ENCODING 111
SWIDTH 1000 0
DWIDTH 11 0
BBX 11 22 0 -4
BITMAP
0000
0000
0000
0000
0000
0000
0000
0000
1E00
2100
2100
4080
4080
4080
4080
2100
2100
1E00
0000
0000
0000
0000
ENDCHAR

STARTCHAR C70
ENCODING 112
SWIDTH 1000 0
DWIDTH 11 0
BBX 11 22 0 -4
BITMAP
0000
0000
0000
0000
0000
0000
0000
0000
2E00
3100
2080
2080
2080
2080
2080
2080
3100
2E00
2000
2000
2000
0000
ENDCHAR

STARTCHAR C71
ENCODING 113
SWIDTH 1000 0
DWIDTH 11 0
BBX 11 22 0 -4
BITMAP
0000
0000
0000
0000
0000
0000
0000
0000
1D00
2300
4100
4100
4100
4100
4100
4100
2300
1D00
0100
0100
0100
0000
ENDCHAR

STARTCHAR C72
ENCODING 114
SWIDTH 1000 0
DWIDTH 11 0
BBX 11 22 0 -4
BITMAP
0000
0000
0000
0000
0000
0000
0000
0000
2300
2C00
3000
2000
2000
2000
2000
2000
2000
2000
0000
0000
0000
0000
ENDCHAR

STARTCHAR C73
ENCODING 115
SWIDTH 1000 0
DWIDTH 11 0
BBX 11 22 0 -4
BITMAP
0000
0000
0000
0000
0000
0000
0000
0000
3C00
4200
4200
4000
3800
0600
0100
4100
4100
3E00
0000
0000
0000
0000
ENDCHAR

STARTCHAR C74
ENCODING 116
SWIDTH 1000 0
DWIDTH 11 0
BBX 11 22 0 -4
BITMAP
0000
0000
0000
0000
0000
0800
0800
0800
3F00
0800
0800
0800
0800
0800
0800
0800
0800
0700
0000
0000
0000
0000
ENDCHAR

STARTCHAR C75
ENCODING 117
SWIDTH 1000 0
DWIDTH 11 0
BBX 11 22 0 -4
BITMAP
0000
0000
0000
0000
0000
0000
0000
0000
4100
4100
4100
4100
4100
4100
4100
4100
2300
1D00
0000
0000
0000
0000
ENDCHAR

STARTCHAR C76
ENCODING 118
SWIDTH 1000 0
DWIDTH 11 0
BBX 11 22 0 -4
BITMAP
0000
0000
0000
0000
0000
0000
0000
0000
8080
8080
4100
4100
2200
2200
1400
1400
0800
0800
0000
0000
0000
0000
ENDCHAR

STARTCHAR C77
ENCODING 119
SWIDTH 1000 0
DWIDTH 11 0
BBX 11 22 0 -4
BITMAP
0000
0000
0000
0000
0000
0000
0000
0000
8880
8880
8880
4900
5500
5500
5500
2200
2200
2200
0000
0000
0000
0000
ENDCHAR

STARTCHAR C78
ENCODING 120
SWIDTH 1000 0
DWIDTH 11 0
BBX 11 22 0 -4
BITMAP
0000
0000
0000
0000
0000
0000
0000
0000
4100
2200
2200
1400
0800
1400
2200
2200
4100
8080
0000
0000
0000
0000
ENDCHAR

STARTCHAR C79
ENCODING 121
SWIDTH 1000 0
DWIDTH 11 0
BBX 11 22 0 -4
BITMAP
0000
0000
0000
0000
0000
0000
0000
0000
4080
4080
2080
2100
1100
1200
0A00
0A00
0400
0400
0800
0800
7000
0000
ENDCHAR

STARTCHAR C7a
ENCODING 122
SWIDTH 1000 0
DWIDTH 11 0
BBX 11 22 0 -4
BITMAP
0000
0000
0000
0000
0000
0000
0000
0000
3F80
0100
0200
0400
0400
0800
1000
1000
2000
7F80
0000
0000
0000
0000
ENDCHAR

STARTCHAR C7b
ENCODING 123
SWIDTH 1000 0
DWIDTH 11 0
BBX 11 22 0 -4
BITMAP
0000
0180
0200
0200
0200
0200
0200
0200
0200
0400
0800
0400
0200
0200
0200
0200
0200
0200
0200
0200
0180
0000
ENDCHAR

STARTCHAR C7c
ENCODING 124
SWIDTH 1000 0
DWIDTH 11 0
BBX 11 22 0 -4
BITMAP
0000
0800
0800
0800
0800
0800
0800
0800
0800
0800
0800
0800
0800
0800
0800
0800
0800
0800
0800
0800
0800
0000
ENDCHAR

STARTCHAR C7d
ENCODING 125
SWIDTH 1000 0
DWIDTH 11 0
BBX 11 22 0 -4
BITMAP
0000
6000
1000
1000
1000
1000
1000
1000
1000
0800
0400
0800
1000
1000
1000
1000
1000
1000
1000
1000
6000
0000
ENDCHAR

STARTCHAR C7e
ENCODING 126
SWIDTH 1000 0
DWIDTH 11 0
BBX 11 22 0 -4
BITMAP
0000
3880
4700
0000
0000
0000
0000
0000
0000
0000
0000
0000
0000
0000
0000
0000
0000
0000
0000
0000
0000
0000
ENDCHAR

STARTCHAR C80
ENCODING 128
SWIDTH 1000 0
DWIDTH 11 0
BBX 11 22 0 -4
BITMAP
0000
0000
0000
0000
0000
0000
0000
0000
0000
0000
0000
0000
0000
0000
0000
0000
0000
0000
0000
0000
0000
0000
ENDCHAR

STARTCHAR C81
ENCODING 129
SWIDTH 1000 0
DWIDTH 11 0
BBX 11 22 0 -4
BITMAP
0000
0000
0000
0000
0000
0000
0000
0000
0000
0000
0000
0000
0000
0000
0000
0000
0000
0000
0000
0000
0000
0000
ENDCHAR

STARTCHAR C82
ENCODING 130
SWIDTH 1000 0
DWIDTH 11 0
BBX 11 22 0 -4
BITMAP
0000
0000
0000
0000
0000
0000
0000
0000
0000
0000
0000
0000
0000
0000
0000
0000
0000
0000
0000
0000
0000
0000
ENDCHAR

STARTCHAR C83
ENCODING 131
SWIDTH 1000 0
DWIDTH 11 0
BBX 11 22 0 -4
BITMAP
0000
0000
0000
0000
0000
0000
0000
0000
0000
0000
0000
0000
0000
0000
0000
0000
0000
0000
0000
0000
0000
0000
ENDCHAR

STARTCHAR C84
ENCODING 132
SWIDTH 1000 0
DWIDTH 11 0
BBX 11 22 0 -4
BITMAP
0000
0000
0000
0000
0000
0000
0000
0000
0000
0000
0000
0000
0000
0000
0000
0000
0000
0000
0000
0000
0000
0000
ENDCHAR

STARTCHAR C85
ENCODING 133
SWIDTH 1000 0
DWIDTH 11 0
BBX 11 22 0 -4
BITMAP
0000
0000
0000
0000
0000
0000
0000
0000
0000
0000
0000
0000
0000
0000
0000
0000
0000
0000
0000
0000
0000
0000
ENDCHAR

STARTCHAR C86
ENCODING 134
SWIDTH 1000 0
DWIDTH 11 0
BBX 11 22 0 -4
BITMAP
0000
0000
0000
0000
0000
0000
0000
0000
0000
0000
0000
0000
0000
0000
0000
0000
0000
0000
0000
0000
0000
0000
ENDCHAR

STARTCHAR C87
ENCODING 135
SWIDTH 1000 0
DWIDTH 11 0
BBX 11 22 0 -4
BITMAP
0000
0000
0000
0000
0000
0000
0000
0000
0000
0000
0000
0000
0000
0000
0000
0000
0000
0000
0000
0000
0000
0000
ENDCHAR

STARTCHAR C88
ENCODING 136
SWIDTH 1000 0
DWIDTH 11 0
BBX 11 22 0 -4
BITMAP
0000
0000
0000
0000
0000
0000
0000
0000
0000
0000
0000
0000
0000
0000
0000
0000
0000
0000
0000
0000
0000
0000
ENDCHAR

STARTCHAR C89
ENCODING 137
SWIDTH 1000 0
DWIDTH 11 0
BBX 11 22 0 -4
BITMAP
0000
0000
0000
0000
0000
0000
0000
0000
0000
0000
0000
0000
0000
0000
0000
0000
0000
0000
0000
0000
0000
0000
ENDCHAR

STARTCHAR C8a
ENCODING 138
SWIDTH 1000 0
DWIDTH 11 0
BBX 11 22 0 -4
BITMAP
0000
0000
0000
0000
0000
0000
0000
0000
0000
0000
0000
0000
0000
0000
0000
0000
0000
0000
0000
0000
0000
0000
ENDCHAR

STARTCHAR C8b
ENCODING 139
SWIDTH 1000 0
DWIDTH 11 0
BBX 11 22 0 -4
BITMAP
0000
0000
0000
0000
0000
0000
0000
0000
0000
0000
0000
0000
0000
0000
0000
0000
0000
0000
0000
0000
0000
0000
ENDCHAR

STARTCHAR C8c
ENCODING 140
SWIDTH 1000 0
DWIDTH 11 0
BBX 11 22 0 -4
BITMAP
0000
0000
0000
0000
0000
0000
0000
0000
0000
0000
0000
0000
0000
0000
0000
0000
0000
0000
0000
0000
0000
0000
ENDCHAR

STARTCHAR C8d
ENCODING 141
SWIDTH 1000 0
DWIDTH 11 0
BBX 11 22 0 -4
BITMAP
0000
0000
0000
0000
0000
0000
0000
0000
0000
0000
0000
0000
0000
0000
0000
0000
0000
0000
0000
0000
0000
0000
ENDCHAR

STARTCHAR C8e
ENCODING 142
SWIDTH 1000 0
DWIDTH 11 0
BBX 11 22 0 -4
BITMAP
0000
0000
0000
0000
0000
0000
0000
0000
0000
0000
0000
0000
0000
0000
0000
0000
0000
0000
0000
0000
0000
0000
ENDCHAR

STARTCHAR C8f
ENCODING 143
SWIDTH 1000 0
DWIDTH 11 0
BBX 11 22 0 -4
BITMAP
0000
0000
0000
0000
0000
0000
0000
0000
0000
0000
0000
0000
0000
0000
0000
0000
0000
0000
0000
0000
0000
0000
ENDCHAR

STARTCHAR C90
ENCODING 144
SWIDTH 1000 0
DWIDTH 11 0
BBX 11 22 0 -4
BITMAP
0000
0000
0000
0000
0000
0000
0000
0000
0000
0000
0000
0000
0000
0000
0000
0000
0000
0000
0000
0000
0000
0000
ENDCHAR

STARTCHAR C91
ENCODING 145
SWIDTH 1000 0
DWIDTH 11 0
BBX 11 22 0 -4
BITMAP
0000
0000
0000
0000
0000
0000
0000
0000
0000
0000
0000
0000
0000
0000
0000
0000
0000
0000
0000
0000
0000
0000
ENDCHAR

STARTCHAR C92
ENCODING 146
SWIDTH 1000 0
DWIDTH 11 0
BBX 11 22 0 -4
BITMAP
0000
0000
0000
0000
0000
0000
0000
0000
0000
0000
0000
0000
0000
0000
0000
0000
0000
0000
0000
0000
0000
0000
ENDCHAR

STARTCHAR C93
ENCODING 147
SWIDTH 1000 0
DWIDTH 11 0
BBX 11 22 0 -4
BITMAP
0000
0000
0000
0000
0000
0000
0000
0000
0000
0000
0000
0000
0000
0000
0000
0000
0000
0000
0000
0000
0000
0000
ENDCHAR

STARTCHAR C94
ENCODING 148
SWIDTH 1000 0
DWIDTH 11 0
BBX 11 22 0 -4
BITMAP
0000
0000
0000
0000
0000
0000
0000
0000
0000
0000
0000
0000
0000
0000
0000
0000
0000
0000
0000
0000
0000
0000
ENDCHAR

STARTCHAR C95
ENCODING 149
SWIDTH 1000 0
DWIDTH 11 0
BBX 11 22 0 -4
BITMAP
0000
0000
0000
0000
0000
0000
0000
0000
0000
0000
0000
0000
0000
0000
0000
0000
0000
0000
0000
0000
0000
0000
ENDCHAR

STARTCHAR C96
ENCODING 150
SWIDTH 1000 0
DWIDTH 11 0
BBX 11 22 0 -4
BITMAP
0000
0000
0000
0000
0000
0000
0000
0000
0000
0000
0000
0000
0000
0000
0000
0000
0000
0000
0000
0000
0000
0000
ENDCHAR

STARTCHAR C97
ENCODING 151
SWIDTH 1000 0
DWIDTH 11 0
BBX 11 22 0 -4
BITMAP
0000
0000
0000
0000
0000
0000
0000
0000
0000
0000
0000
0000
0000
0000
0000
0000
0000
0000
0000
0000
0000
0000
ENDCHAR

STARTCHAR C98
ENCODING 152
SWIDTH 1000 0
DWIDTH 11 0
BBX 11 22 0 -4
BITMAP
0000
0000
0000
0000
0000
0000
0000
0000
0000
0000
0000
0000
0000
0000
0000
0000
0000
0000
0000
0000
0000
0000
ENDCHAR

STARTCHAR C99
ENCODING 153
SWIDTH 1000 0
DWIDTH 11 0
BBX 11 22 0 -4
BITMAP
0000
0000
0000
0000
0000
0000
0000
0000
0000
0000
0000
0000
0000
0000
0000
0000
0000
0000
0000
0000
0000
0000
ENDCHAR

STARTCHAR C9a
ENCODING 154
SWIDTH 1000 0
DWIDTH 11 0
BBX 11 22 0 -4
BITMAP
0000
0000
0000
0000
0000
0000
0000
0000
0000
0000
0000
0000
0000
0000
0000
0000
0000
0000
0000
0000
0000
0000
ENDCHAR

STARTCHAR C9b
ENCODING 155
SWIDTH 1000 0
DWIDTH 11 0
BBX 11 22 0 -4
BITMAP
0000
0000
0000
0000
0000
0000
0000
0000
0000
0000
0000
0000
0000
0000
0000
0000
0000
0000
0000
0000
0000
0000
ENDCHAR

STARTCHAR C9c
ENCODING 156
SWIDTH 1000 0
DWIDTH 11 0
BBX 11 22 0 -4
BITMAP
0000
0000
0000
0000
0000
0000
0000
0000
0000
0000
0000
0000
0000
0000
0000
0000
0000
0000
0000
0000
0000
0000
ENDCHAR

STARTCHAR C9d
ENCODING 157
SWIDTH 1000 0
DWIDTH 11 0
BBX 11 22 0 -4
BITMAP
0000
0000
0000
0000
0000
0000
0000
0000
0000
0000
0000
0000
0000
0000
0000
0000
0000
0000
0000
0000
0000
0000
ENDCHAR

STARTCHAR C9e
ENCODING 158
SWIDTH 1000 0
DWIDTH 11 0
BBX 11 22 0 -4
BITMAP
0000
0000
0000
0000
0000
0000
0000
0000
0000
0000
0000
0000
0000
0000
0000
0000
0000
0000
0000
0000
0000
0000
ENDCHAR

STARTCHAR C9f
ENCODING 159
SWIDTH 1000 0
DWIDTH 11 0
BBX 11 22 0 -4
BITMAP
0000
0000
0000
0000
0000
0000
0000
0000
0000
0000
0000
0000
0000
0000
0000
0000
0000
0000
0000
0000
0000
0000
ENDCHAR

STARTCHAR Ca0
ENCODING 160
SWIDTH 1000 0
DWIDTH 11 0
BBX 11 22 0 -4
BITMAP
0000
0000
0000
0000
0000
0000
0000
0000
0000
0000
0000
0000
0000
0000
0000
0000
0000
0000
0000
0000
0000
0000
ENDCHAR

STARTCHAR Ca1
ENCODING 161
SWIDTH 1000 0
DWIDTH 11 0
BBX 11 22 0 -4
BITMAP
0000
0000
0800
1C00
0800
0000
0000
0800
0800
0800
0800
1C00
1C00
1C00
1C00
1C00
0800
0800
0000
0000
0000
0000
ENDCHAR

STARTCHAR Ca2
ENCODING 162
SWIDTH 1000 0
DWIDTH 11 0
BBX 11 22 0 -4
BITMAP
0000
0000
0000
0000
0300
0200
1E00
2200
4500
4500
4400
4800
4800
5000
5100
5100
2200
3C00
2000
6000
0000
0000
ENDCHAR

STARTCHAR Ca3
ENCODING 163
SWIDTH 1000 0
DWIDTH 11 0
BBX 11 22 0 -4
BITMAP
0000
0000
0000
1C00
2200
2200
2000
1000
1000
1000
FE00
1000
1000
1000
1000
7080
B080
6F00
0000
0000
0000
0000
ENDCHAR

STARTCHAR Ca4
ENCODING 164
SWIDTH 1000 0
DWIDTH 11 0
BBX 11 22 0 -4
BITMAP
0000
0000
0000
0000
0000
0000
8080
5D00
2200
4100
4100
4100
2200
5D00
8080
0000
0000
0000
0000
0000
0000
0000
ENDCHAR

STARTCHAR Ca5
ENCODING 165
SWIDTH 1000 0
DWIDTH 11 0
BBX 11 22 0 -4
BITMAP
0000
0000
8080
8080
4100
4100
2200
F780
1400
1400
0800
FF80
0800
0800
0800
0800
0800
0800
0000
0000
0000
0000
ENDCHAR

STARTCHAR Ca6
ENCODING 166
SWIDTH 1000 0
DWIDTH 11 0
BBX 11 22 0 -4
BITMAP
0000
0000
0800
0800
0800
0800
0800
0800
0000
0000
0000
0800
0800
0800
0800
0800
0800
0000
0000
0000
0000
0000
ENDCHAR

STARTCHAR Ca7
ENCODING 167
SWIDTH 1000 0
DWIDTH 11 0
BBX 11 22 0 -4
BITMAP
0000
0000
3E00
4100
4100
4000
3000
7E00
8100
8080
8080
4080
3F00
0600
0100
4100
4100
3E00
0000
0000
0000
0000
ENDCHAR

STARTCHAR Ca8
ENCODING 168
SWIDTH 1000 0
DWIDTH 11 0
BBX 11 22 0 -4
BITMAP
0000
1200
1200
1200
0000
0000
0000
0000
0000
0000
0000
0000
0000
0000
0000
0000
0000
0000
0000
0000
0000
0000
ENDCHAR

STARTCHAR Ca9
ENCODING 169
SWIDTH 1000 0
DWIDTH 11 0
BBX 11 22 0 -4
BITMAP
0000
0000
1E00
2100
4080
4C80
9240
A140
A040
A040
A040
A140
9240
4C80
4080
2100
1E00
0000
0000
0000
0000
0000
ENDCHAR

STARTCHAR Caa
ENCODING 170
SWIDTH 1000 0
DWIDTH 11 0
BBX 11 22 0 -4
BITMAP
0000
1C00
2200
0200
0E00
3200
4200
4600
3B80
0000
FFC0
0000
0000
0000
0000
0000
0000
0000
0000
0000
0000
0000
ENDCHAR

STARTCHAR Cab
ENCODING 171
SWIDTH 1000 0
DWIDTH 11 0
BBX 11 22 0 -4
BITMAP
0000
0000
0880
0880
1100
1100
2200
2200
4400
4400
2200
2200
1100
1100
0880
0880
0000
0000
0000
0000
0000
0000
ENDCHAR

STARTCHAR Cac
ENCODING 172
SWIDTH 1000 0
DWIDTH 11 0
BBX 11 22 0 -4
BITMAP
0000
0000
0000
0000
0000
0000
0000
0000
7F80
0080
0080
0080
0000
0000
0000
0000
0000
0000
0000
0000
0000
0000
ENDCHAR

STARTCHAR Cad
ENCODING 173
SWIDTH 1000 0
DWIDTH 11 0
BBX 11 22 0 -4
BITMAP
0000
0000
0000
0000
0000
0000
0000
0000
0000
7F00
0000
0000
0000
0000
0000
0000
0000
0000
0000
0000
0000
0000
ENDCHAR

STARTCHAR Cae
ENCODING 174
SWIDTH 1000 0
DWIDTH 11 0
BBX 11 22 0 -4
BITMAP
0000
0000
1E00
2100
4080
7E80
A140
A140
A140
BE40
A240
A140
A140
6180
4080
2100
1E00
0000
0000
0000
0000
0000
ENDCHAR

STARTCHAR Caf
ENCODING 175
SWIDTH 1000 0
DWIDTH 11 0
BBX 11 22 0 -4
BITMAP
0000
FF80
0000
0000
0000
0000
0000
0000
0000
0000
0000
0000
0000
0000
0000
0000
0000
0000
0000
0000
0000
0000
ENDCHAR

STARTCHAR Cb0
ENCODING 176
SWIDTH 1000 0
DWIDTH 11 0
BBX 11 22 0 -4
BITMAP
0000
7000
8800
8800
8800
7000
0000
0000
0000
0000
0000
0000
0000
0000
0000
0000
0000
0000
0000
0000
0000
0000
ENDCHAR

STARTCHAR Cb1
ENCODING 177
SWIDTH 1000 0
DWIDTH 11 0
BBX 11 22 0 -4
BITMAP
0000
0000
0000
0000
0800
0800
0800
0800
FF80
0800
0800
0800
0800
0000
0000
FF80
0000
0000
0000
0000
0000
0000
ENDCHAR

STARTCHAR Cb2
ENCODING 178
SWIDTH 1000 0
DWIDTH 11 0
BBX 11 22 0 -4
BITMAP
0000
7000
8800
0800
1000
2000
4000
F800
0000
0000
0000
0000
0000
0000
0000
0000
0000
0000
0000
0000
0000
0000
ENDCHAR

STARTCHAR Cb3
ENCODING 179
SWIDTH 1000 0
DWIDTH 11 0
BBX 11 22 0 -4
BITMAP
0000
7000
8800
0800
3000
0800
8800
7000
0000
0000
0000
0000
0000
0000
0000
0000
0000
0000
0000
0000
0000
0000
ENDCHAR

STARTCHAR Cb4
ENCODING 180
SWIDTH 1000 0
DWIDTH 11 0
BBX 11 22 0 -4
BITMAP
0000
0600
0E00
3800
0000
0000
0000
0000
0000
0000
0000
0000
0000
0000
0000
0000
0000
0000
0000
0000
0000
0000
ENDCHAR

STARTCHAR Cb5
ENCODING 181
SWIDTH 1000 0
DWIDTH 11 0
BBX 11 22 0 -4
BITMAP
0000
0000
0000
0000
0000
0880
0880
0880
1080
1100
1100
1100
2100
2200
2200
2200
2600
7B80
4000
4000
C000
0000
ENDCHAR

STARTCHAR Cb6
ENCODING 182
SWIDTH 1000 0
DWIDTH 11 0
BBX 11 22 0 -4
BITMAP
0000
0000
1D00
2500
4500
4500
4500
4500
4500
2500
1D00
0500
0500
0500
0500
0500
0500
0500
0000
0000
0000
0000
ENDCHAR

STARTCHAR Cb7
ENCODING 183
SWIDTH 1000 0
DWIDTH 11 0
BBX 11 22 0 -4
BITMAP
0000
0000
0000
0000
0000
0000
1C00
3E00
3E00
3E00
1C00
0000
0000
0000
0000
0000
0000
0000
0000
0000
0040
0000
ENDCHAR

STARTCHAR Cb8
ENCODING 184
SWIDTH 1000 0
DWIDTH 11 0
BBX 11 22 0 -4
BITMAP
0000
0000
0000
0000
0000
0000
0000
0000
0000
0000
0000
0000
0000
0000
0000
0000
0000
0000
0600
0200
1C00
0000
ENDCHAR

STARTCHAR Cb9
ENCODING 185
SWIDTH 1000 0
DWIDTH 11 0
BBX 11 22 0 -4
BITMAP
0000
2000
6000
2000
2000
2000
2000
7000
0000
0000
0000
0000
0000
0000
0000
0000
0000
0000
0000
0000
0000
0000
ENDCHAR

STARTCHAR Cba
ENCODING 186
SWIDTH 1000 0
DWIDTH 11 0
BBX 11 22 0 -4
BITMAP
0000
1E00
2100
4080
4080
4080
4080
2100
1E00
0000
FFC0
0000
0000
0000
0000
0000
0000
0000
0000
0000
0000
0000
ENDCHAR

STARTCHAR Cbb
ENCODING 187
SWIDTH 1000 0
DWIDTH 11 0
BBX 11 22 0 -4
BITMAP
0000
0000
4400
4400
2200
2200
1100
1100
0880
0880
1100
1100
2200
2200
4400
4400
0000
0000
0000
0000
0000
0000
ENDCHAR

STARTCHAR Cbc
ENCODING 188
SWIDTH 1000 0
DWIDTH 11 0
BBX 11 22 0 -4
BITMAP
0000
2000
6000
2080
2100
2100
2200
2400
7400
0800
1100
1300
2500
4900
5100
9FC0
0100
0100
0000
0000
0000
0000
ENDCHAR

STARTCHAR Cbd
ENCODING 189
SWIDTH 1000 0
DWIDTH 11 0
BBX 11 22 0 -4
BITMAP
0000
2000
6000
2080
2100
2100
2200
2400
7400
0800
1380
1440
2840
4080
4100
8200
0400
0FC0
0000
0000
0000
0000
ENDCHAR

STARTCHAR Cbe
ENCODING 190
SWIDTH 1000 0
DWIDTH 11 0
BBX 11 22 0 -4
BITMAP
0000
7000
8800
0880
7100
0900
8A00
7400
0400
0800
1100
1300
2500
4900
5100
9FC0
0100
0100
0000
0000
0000
0000
ENDCHAR

STARTCHAR Cbf
ENCODING 191
SWIDTH 1000 0
DWIDTH 11 0
BBX 11 22 0 -4
BITMAP
0000
0000
0800
0800
0000
0000
0800
0800
1000
1000
2000
4000
4100
8080
8080
8080
6300
1C00
0000
0000
0000
0000
ENDCHAR

STARTCHAR Cc0
ENCODING 192
SWIDTH 1000 0
DWIDTH 11 0
BBX 11 22 0 -4
BITMAP
0000
3000
1E00
0000
0800
0800
1400
1400
2200
2200
2200
4100
4100
7F00
4100
8080
8080
8080
0000
0000
0000
0000
ENDCHAR

STARTCHAR Cc1
ENCODING 193
SWIDTH 1000 0
DWIDTH 11 0
BBX 11 22 0 -4
BITMAP
0000
0600
3C00
0000
0800
0800
1400
1400
2200
2200
2200
4100
4100
7F00
4100
8080
8080
8080
0000
0000
0000
0000
ENDCHAR

STARTCHAR Cc2
ENCODING 194
SWIDTH 1000 0
DWIDTH 11 0
BBX 11 22 0 -4
BITMAP
0000
1C00
2200
0000
0800
0800
1400
1400
2200
2200
2200
4100
4100
7F00
4100
8080
8080
8080
0000
0000
0000
0000
ENDCHAR

STARTCHAR Cc3
ENCODING 195
SWIDTH 1000 0
DWIDTH 11 0
BBX 11 22 0 -4
BITMAP
0000
3900
4E00
0000
0800
0800
1400
1400
2200
2200
2200
4100
4100
7F00
4100
8080
8080
8080
0000
0000
0000
0000
ENDCHAR

STARTCHAR Cc4
ENCODING 196
SWIDTH 1000 0
DWIDTH 11 0
BBX 11 22 0 -4
BITMAP
0000
2200
2200
0000
0800
0800
1400
1400
2200
2200
2200
4100
4100
7F00
4100
8080
8080
8080
0000
0000
0000
0000
ENDCHAR

STARTCHAR Cc5
ENCODING 197
SWIDTH 1000 0
DWIDTH 11 0
BBX 11 22 0 -4
BITMAP
0000
1C00
3600
1C00
0800
0800
1400
1400
2200
2200
2200
4100
4100
7F00
4100
8080
8080
8080
0000
0000
0000
0000
ENDCHAR

STARTCHAR Cc6
ENCODING 198
SWIDTH 1000 0
DWIDTH 11 0
BBX 11 22 0 -4
BITMAP
0000
0000
0F80
1800
1800
2800
2800
4800
4800
4F00
8800
F800
8800
8800
8800
8800
8800
8F80
0000
0000
0000
0000
ENDCHAR

STARTCHAR Cc7
ENCODING 199
SWIDTH 1000 0
DWIDTH 11 0
BBX 11 22 0 -4
BITMAP
0000
0000
1E00
2100
4080
4080
8000
8000
8000
8000
8000
8000
8000
8000
4080
4080
2300
1C00
0600
0200
3C00
0000
ENDCHAR

STARTCHAR Cc8
ENCODING 200
SWIDTH 1000 0
DWIDTH 11 0
BBX 11 22 0 -4
BITMAP
0000
3000
1E00
0000
FF80
8000
8000
8000
8000
8000
FE00
8000
8000
8000
8000
8000
8000
FF80
0000
0000
0000
0000
ENDCHAR

STARTCHAR Cc9
ENCODING 201
SWIDTH 1000 0
DWIDTH 11 0
BBX 11 22 0 -4
BITMAP
0000
0600
3C00
0000
FF80
8000
8000
8000
8000
8000
FE00
8000
8000
8000
8000
8000
8000
FF80
0000
0000
0000
0000
ENDCHAR

STARTCHAR Cca
ENCODING 202
SWIDTH 1000 0
DWIDTH 11 0
BBX 11 22 0 -4
BITMAP
0000
1C00
2200
0000
FF80
8000
8000
8000
8000
8000
FE00
8000
8000
8000
8000
8000
8000
FF80
0000
0000
0000
0000
ENDCHAR

STARTCHAR Ccb
ENCODING 203
SWIDTH 1000 0
DWIDTH 11 0
BBX 11 22 0 -4
BITMAP
0000
2200
2200
0000
FF80
8000
8000
8000
8000
8000
FE00
8000
8000
8000
8000
8000
8000
FF80
0000
0000
0000
0000
ENDCHAR

STARTCHAR Ccc
ENCODING 204
SWIDTH 1000 0
DWIDTH 11 0
BBX 11 22 0 -4
BITMAP
0000
3000
1E00
0000
0800
0800
0800
0800
0800
0800
0800
0800
0800
0800
0800
0800
0800
0800
0000
0000
0000
0000
ENDCHAR

STARTCHAR Ccd
ENCODING 205
SWIDTH 1000 0
DWIDTH 11 0
BBX 11 22 0 -4
BITMAP
0000
0600
3C00
0000
0800
0800
0800
0800
0800
0800
0800
0800
0800
0800
0800
0800
0800
0800
0000
0000
0000
0000
ENDCHAR

STARTCHAR Cce
ENCODING 206
SWIDTH 1000 0
DWIDTH 11 0
BBX 11 22 0 -4
BITMAP
0000
1C00
2200
0000
0800
0800
0800
0800
0800
0800
0800
0800
0800
0800
0800
0800
0800
0800
0000
0000
0000
0000
ENDCHAR

STARTCHAR Ccf
ENCODING 207
SWIDTH 1000 0
DWIDTH 11 0
BBX 11 22 0 -4
BITMAP
0000
2200
2200
0000
0800
0800
0800
0800
0800
0800
0800
0800
0800
0800
0800
0800
0800
0800
0000
0000
0000
0000
ENDCHAR

STARTCHAR Cd0
ENCODING 208
SWIDTH 1000 0
DWIDTH 11 0
BBX 11 22 0 -4
BITMAP
0000
0000
0000
7800
4600
4100
4100
4080
4080
4080
F880
4080
4080
4080
4100
4100
4600
7800
0000
0000
0000
0000
ENDCHAR

STARTCHAR Cd1
ENCODING 209
SWIDTH 1000 0
DWIDTH 11 0
BBX 11 22 0 -4
BITMAP
0000
3900
4E00
0000
8100
C100
C100
A100
A100
9100
9100
8900
8900
8500
8500
8300
8300
8100
0000
0000
0000
0000
ENDCHAR

STARTCHAR Cd2
ENCODING 210
SWIDTH 1000 0
DWIDTH 11 0
BBX 11 22 0 -4
BITMAP
0000
3000
1E00
0000
1C00
2200
4100
4100
8080
8080
8080
8080
8080
8080
4100
4100
2200
1C00
0000
0000
0000
0000
ENDCHAR

STARTCHAR Cd3
ENCODING 211
SWIDTH 1000 0
DWIDTH 11 0
BBX 11 22 0 -4
BITMAP
0000
0600
3C00
0000
1C00
2200
4100
4100
8080
8080
8080
8080
8080
8080
4100
4100
2200
1C00
0000
0000
0000
0000
ENDCHAR

STARTCHAR Cd4
ENCODING 212
SWIDTH 1000 0
DWIDTH 11 0
BBX 11 22 0 -4
BITMAP
0000
1C00
2200
0000
1C00
2200
4100
4100
8080
8080
8080
8080
8080
8080
4100
4100
2200
1C00
0000
0000
0000
0000
ENDCHAR

STARTCHAR Cd5
ENCODING 213
SWIDTH 1000 0
DWIDTH 11 0
BBX 11 22 0 -4
BITMAP
0000
3900
4E00
0000
1C00
2200
4100
4100
8080
8080
8080
8080
8080
8080
4100
4100
2200
1C00
0000
0000
0000
0000
ENDCHAR

STARTCHAR Cd6
ENCODING 214
SWIDTH 1000 0
DWIDTH 11 0
BBX 11 22 0 -4
BITMAP
0000
2200
2200
0000
1C00
2200
4100
4100
8080
8080
8080
8080
8080
8080
4100
4100
2200
1C00
0000
0000
0000
0000
ENDCHAR

STARTCHAR Cd7
ENCODING 215
SWIDTH 1000 0
DWIDTH 11 0
BBX 11 22 0 -4
BITMAP
0000
0000
0000
0000
0000
0000
8080
4100
2200
1400
0800
1400
2200
4100
8080
0000
0000
0000
0000
0000
0000
0000
ENDCHAR

STARTCHAR Cd8
ENCODING 216
SWIDTH 1000 0
DWIDTH 11 0
BBX 11 22 0 -4
BITMAP
0000
0000
0000
0000
0000
0100
1D00
2200
4300
4500
8480
8880
8880
9080
5100
6100
2200
5C00
4000
0000
0000
0000
ENDCHAR

STARTCHAR Cd9
ENCODING 217
SWIDTH 1000 0
DWIDTH 11 0
BBX 11 22 0 -4
BITMAP
0000
3000
1E00
0000
8080
8080
8080
8080
8080
8080
8080
8080
8080
8080
4100
4100
2200
1C00
0000
0000
0000
0000
ENDCHAR

STARTCHAR Cda
ENCODING 218
SWIDTH 1000 0
DWIDTH 11 0
BBX 11 22 0 -4
BITMAP
0000
0600
3C00
0000
8080
8080
8080
8080
8080
8080
8080
8080
8080
8080
4100
4100
2200
1C00
0000
0000
0000
0000
ENDCHAR

STARTCHAR Cdb
ENCODING 219
SWIDTH 1000 0
DWIDTH 11 0
BBX 11 22 0 -4
BITMAP
0000
1C00
2200
0000
8080
8080
8080
8080
8080
8080
8080
8080
8080
8080
4100
4100
2200
1C00
0000
0000
0000
0000
ENDCHAR

STARTCHAR Cdc
ENCODING 220
SWIDTH 1000 0
DWIDTH 11 0
BBX 11 22 0 -4
BITMAP
0000
2200
2200
0000
8080
8080
8080
8080
8080
8080
8080
8080
8080
8080
4100
4100
2200
1C00
0000
0000
0000
0000
ENDCHAR

STARTCHAR Cdd
ENCODING 221
SWIDTH 1000 0
DWIDTH 11 0
BBX 11 22 0 -4
BITMAP
0000
0600
3C00
0000
8080
4100
4100
2200
2200
1400
1400
0800
0800
0800
0800
0800
0800
0800
0000
0000
0000
0000
ENDCHAR

STARTCHAR Cde
ENCODING 222
SWIDTH 1000 0
DWIDTH 11 0
BBX 11 22 0 -4
BITMAP
0000
0000
2000
2000
2000
3E00
2100
2080
2080
2080
2080
2080
2100
3E00
2000
2000
2000
2000
0000
0000
0000
0000
ENDCHAR

STARTCHAR Cdf
ENCODING 223
SWIDTH 1000 0
DWIDTH 11 0
BBX 11 22 0 -4
BITMAP
0000
0000
0000
0700
0880
0840
1040
1080
1080
1300
2080
2040
2040
2040
2040
4040
4880
4700
4000
4000
8000
0000
ENDCHAR

STARTCHAR Ce0
ENCODING 224
SWIDTH 1000 0
DWIDTH 11 0
BBX 11 22 0 -4
BITMAP
0000
0000
0000
0000
0000
3000
1E00
0000
3C00
4200
0100
0300
3D00
4100
8100
8100
8300
7DC0
0000
0000
0000
0000
ENDCHAR

STARTCHAR Ce1
ENCODING 225
SWIDTH 1000 0
DWIDTH 11 0
BBX 11 22 0 -4
BITMAP
0000
0000
0000
0000
0000
0600
3C00
0000
3C00
4200
0100
0300
3D00
4100
8100
8100
8300
7DC0
0000
0000
0000
0000
ENDCHAR

STARTCHAR Ce2
ENCODING 226
SWIDTH 1000 0
DWIDTH 11 0
BBX 11 22 0 -4
BITMAP
0000
0000
0000
0000
0000
1C00
2200
0000
3C00
4200
0100
0300
3D00
4100
8100
8100
8300
7DC0
0000
0000
0000
0000
ENDCHAR

STARTCHAR Ce3
ENCODING 227
SWIDTH 1000 0
DWIDTH 11 0
BBX 11 22 0 -4
BITMAP
0000
0000
0000
0000
0000
3900
4E00
0000
3C00
4200
0100
0300
3D00
4100
8100
8100
8300
7DC0
0000
0000
0000
0000
ENDCHAR

STARTCHAR Ce4
ENCODING 228
SWIDTH 1000 0
DWIDTH 11 0
BBX 11 22 0 -4
BITMAP
0000
0000
0000
0000
0000
2200
2200
0000
3C00
4200
0100
0300
3D00
4100
8100
8100
8300
7DC0
0000
0000
0000
0000
ENDCHAR

STARTCHAR Ce5
ENCODING 229
SWIDTH 1000 0
DWIDTH 11 0
BBX 11 22 0 -4
BITMAP
0000
0000
0000
0000
1C00
3600
1C00
0000
3C00
4200
0100
0300
3D00
4100
8100
8100
8300
7DC0
0000
0000
0000
0000
ENDCHAR

STARTCHAR Ce6
ENCODING 230
SWIDTH 1000 0
DWIDTH 11 0
BBX 11 22 0 -4
BITMAP
0000
0000
0000
0000
0000
0000
0000
0000
7700
8880
0880
0880
3F80
4800
8800
8800
9880
7700
0000
0000
0000
0000
ENDCHAR

STARTCHAR Ce7
ENCODING 231
SWIDTH 1000 0
DWIDTH 11 0
BBX 11 22 0 -4
BITMAP
0000
0000
0000
0000
0000
0000
0000
1E00
2100
4080
4000
8000
8000
8000
4000
4080
2300
1C00
0600
0200
1E00
0000
ENDCHAR

STARTCHAR Ce8
ENCODING 232
SWIDTH 1000 0
DWIDTH 11 0
BBX 11 22 0 -4
BITMAP
0000
0000
0000
0000
0000
3000
1E00
0000
1E00
2100
4080
4080
7F80
4000
4000
4080
2100
1E00
0000
0000
0000
0000
ENDCHAR

STARTCHAR Ce9
ENCODING 233
SWIDTH 1000 0
DWIDTH 11 0
BBX 11 22 0 -4
BITMAP
0000
0000
0000
0000
0000
0600
3C00
0000
1E00
2100
4080
4080
7F80
4000
4000
4080
2100
1E00
0000
0000
0000
0000
ENDCHAR

STARTCHAR Cea
ENCODING 234
SWIDTH 1000 0
DWIDTH 11 0
BBX 11 22 0 -4
BITMAP
0000
0000
0000
0000
0000
1C00
2200
0000
1E00
2100
4080
4080
7F80
4000
4000
4080
2100
1E00
0000
0000
0000
0000
ENDCHAR

STARTCHAR Ceb
ENCODING 235
SWIDTH 1000 0
DWIDTH 11 0
BBX 11 22 0 -4
BITMAP
0000
0000
0000
0000
0000
2200
2200
0000
1E00
2100
4080
4080
7F80
4000
4000
4080
2100
1E00
0000
0000
0000
0000
ENDCHAR

STARTCHAR Cec
ENCODING 236
SWIDTH 1000 0
DWIDTH 11 0
BBX 11 22 0 -4
BITMAP
0000
0000
0000
0000
0000
3000
1E00
0000
0800
0800
0800
0800
0800
0800
0800
0800
0800
0800
0000
0000
0000
0000
ENDCHAR

STARTCHAR Ced
ENCODING 237
SWIDTH 1000 0
DWIDTH 11 0
BBX 11 22 0 -4
BITMAP
0000
0000
0000
0000
0000
0600
3C00
0000
0800
0800
0800
0800
0800
0800
0800
0800
0800
0800
0000
0000
0000
0000
ENDCHAR

STARTCHAR Cee
ENCODING 238
SWIDTH 1000 0
DWIDTH 11 0
BBX 11 22 0 -4
BITMAP
0000
0000
0000
0000
0000
1C00
2200
0000
0800
0800
0800
0800
0800
0800
0800
0800
0800
0800
0000
0000
0000
0000
ENDCHAR

STARTCHAR Cef
ENCODING 239
SWIDTH 1000 0
DWIDTH 11 0
BBX 11 22 0 -4
BITMAP
0000
0000
0000
0000
0000
2200
2200
0000
0800
0800
0800
0800
0800
0800
0800
0800
0800
0800
0000
0000
0000
0000
ENDCHAR

STARTCHAR Cf0
ENCODING 240
SWIDTH 1000 0
DWIDTH 11 0
BBX 11 22 0 -4
BITMAP
0000
0000
0000
0000
6100
1A00
0C00
1200
2200
0100
1D00
2300
4100
4100
4100
4100
2200
1C00
0000
0000
0000
0000
ENDCHAR

STARTCHAR Cf1
ENCODING 241
SWIDTH 1000 0
DWIDTH 11 0
BBX 11 22 0 -4
BITMAP
0000
0000
0000
0000
0000
3900
4E00
0000
DE00
6100
4080
4080
4080
4080
4080
4080
4080
4080
0000
0000
0000
0000
ENDCHAR

STARTCHAR Cf2
ENCODING 242
SWIDTH 1000 0
DWIDTH 11 0
BBX 11 22 0 -4
BITMAP
0000
0000
0000
0000
0000
3000
1E00
0000
1C00
2200
4100
8080
8080
8080
8080
4100
2200
1C00
0000
0000
0000
0000
ENDCHAR

STARTCHAR Cf3
ENCODING 243
SWIDTH 1000 0
DWIDTH 11 0
BBX 11 22 0 -4
BITMAP
0000
0000
0000
0000
0000
0600
3C00
0000
1C00
2200
4100
8080
8080
8080
8080
4100
2200
1C00
0000
0000
0000
0000
ENDCHAR

STARTCHAR Cf4
ENCODING 244
SWIDTH 1000 0
DWIDTH 11 0
BBX 11 22 0 -4
BITMAP
0000
0000
0000
0000
0000
1C00
2200
0000
1C00
2200
4100
8080
8080
8080
8080
4100
2200
1C00
0000
0000
0000
0000
ENDCHAR

STARTCHAR Cf5
ENCODING 245
SWIDTH 1000 0
DWIDTH 11 0
BBX 11 22 0 -4
BITMAP
0000
0000
0000
0000
0000
3900
4E00
0000
1C00
2200
4100
8080
8080
8080
8080
4100
2200
1C00
0000
0000
0000
0000
ENDCHAR

STARTCHAR Cf6
ENCODING 246
SWIDTH 1000 0
DWIDTH 11 0
BBX 11 22 0 -4
BITMAP
0000
0000
0000
0000
0000
2200
2200
0000
1C00
2200
4100
8080
8080
8080
8080
4100
2200
1C00
0000
0000
0000
0000
ENDCHAR

STARTCHAR Cf7
ENCODING 247
SWIDTH 1000 0
DWIDTH 11 0
BBX 11 22 0 -4
BITMAP
0000
0000
0000
0000
0800
1C00
0800
0000
0000
FF80
0000
0000
0800
1C00
0800
0000
0000
0000
0000
0000
0000
0000
ENDCHAR

STARTCHAR Cf8
ENCODING 248
SWIDTH 1000 0
DWIDTH 11 0
BBX 11 22 0 -4
BITMAP
0000
0000
0000
0000
0000
0000
0000
0100
1F00
2200
4500
4500
4900
4900
5100
5100
2200
7C00
4000
0000
0000
0000
ENDCHAR

STARTCHAR Cf9
ENCODING 249
SWIDTH 1000 0
DWIDTH 11 0
BBX 11 22 0 -4
BITMAP
0000
0000
0000
0000
0000
3000
1E00
0000
4100
4100
4100
4100
4100
4100
4100
4100
2300
1D00
0000
0000
0000
0000
ENDCHAR

STARTCHAR Cfa
ENCODING 250
SWIDTH 1000 0
DWIDTH 11 0
BBX 11 22 0 -4
BITMAP
0000
0000
0000
0000
0000
0600
3C00
0000
4100
4100
4100
4100
4100
4100
4100
4100
2300
1D00
0000
0000
0000
0000
ENDCHAR

STARTCHAR Cfb
ENCODING 251
SWIDTH 1000 0
DWIDTH 11 0
BBX 11 22 0 -4
BITMAP
0000
0000
0000
0000
0000
1C00
2200
0000
4100
4100
4100
4100
4100
4100
4100
4100
2300
1D00
0000
0000
0000
0000
ENDCHAR

STARTCHAR Cfc
ENCODING 252
SWIDTH 1000 0
DWIDTH 11 0
BBX 11 22 0 -4
BITMAP
0000
0000
0000
0000
0000
2200
2200
0000
4100
4100
4100
4100
4100
4100
4100
4100
2300
1D00
0000
0000
0000
0000
ENDCHAR

STARTCHAR Cfd
ENCODING 253
SWIDTH 1000 0
DWIDTH 11 0
BBX 11 22 0 -4
BITMAP
0000
0000
0000
0000
0000
0300
1E00
0000
2080
2080
2080
1100
1100
1100
0A00
0A00
0600
0400
0800
0800
3000
0000
ENDCHAR

STARTCHAR Cfe
ENCODING 254
SWIDTH 1000 0
DWIDTH 11 0
BBX 11 22 0 -4
BITMAP
0000
0000
0000
0000
0000
0000
0000
0000
2000
2000
3C00
2300
2080
2080
2080
2080
2300
3C00
2000
2000
2000
0000
ENDCHAR

STARTCHAR Cff
ENCODING 255
SWIDTH 1000 0
DWIDTH 11 0
BBX 11 22 0 -4
BITMAP
0000
0000
0000
0000
0000
1100
1100
0000
2080
2080
2080
1100
1100
1100
0A00
0A00
0600
0400
0800
0800
3000
0000
ENDCHAR
ENDFONT
